<svg xmlns="http://www.w3.org/2000/svg" xmlns:xlink="http://www.w3.org/1999/xlink" width="128" zoomAndPan="magnify" viewBox="0 0 96 95.999999" height="128" preserveAspectRatio="xMidYMid meet" version="1.0"><defs><clipPath id="id1"><path d="M 11 15 L 87 15 L 87 90.058594 L 11 90.058594 Z M 11 15 " clip-rule="nonzero"/></clipPath><clipPath id="id2"><path d="M 45 69.003906 L 62.632812 69.003906 L 62.632812 73.917969 L 45 73.917969 Z M 45 69.003906 " clip-rule="nonzero"/></clipPath><clipPath id="id3"><path d="M 45.015625 71.339844 C 45.015625 71.339844 56.1875 72.945312 62.429688 69.242188 C 58.1875 74.074219 49.789062 75.496094 45.015625 71.339844 Z M 45.015625 71.339844 " clip-rule="nonzero"/></clipPath><clipPath id="id4"><path d="M 45.015625 71.339844 C 45.015625 71.339844 56.1875 72.945312 62.429688 69.242188 C 58.1875 74.074219 49.789062 75.496094 45.015625 71.339844 " clip-rule="nonzero"/></clipPath><clipPath id="id5"><path d="M 45.257812 77.539062 L 63.160156 75.40625 L 62.183594 67.195312 L 44.28125 69.332031 Z M 45.257812 77.539062 " clip-rule="nonzero"/></clipPath><linearGradient x1="-0.399051" gradientTransform="matrix(-0.384579, -3.236377, 3.23141, -0.38517, 54.11404, 73.599366)" y1="0" x2="1.657631" gradientUnits="userSpaceOnUse" y2="0" id="id6"><stop stop-opacity="1" stop-color="rgb(98.399353%, 79.199219%, 73.699951%)" offset="0"/><stop stop-opacity="1" stop-color="rgb(98.399353%, 79.199219%, 73.699951%)" offset="0.125"/><stop stop-opacity="1" stop-color="rgb(98.399353%, 79.199219%, 73.699951%)" offset="0.1875"/><stop stop-opacity="1" stop-color="rgb(98.399353%, 79.199219%, 73.50769%)" offset="0.21875"/><stop stop-opacity="1" stop-color="rgb(98.248291%, 79.049683%, 73.158264%)" offset="0.226562"/><stop stop-opacity="1" stop-color="rgb(98.048401%, 78.741455%, 72.949219%)" offset="0.234375"/><stop stop-opacity="1" stop-color="rgb(97.932434%, 78.491211%, 72.831726%)" offset="0.242187"/><stop stop-opacity="1" stop-color="rgb(97.732544%, 78.370667%, 72.610474%)" offset="0.25"/><stop stop-opacity="1" stop-color="rgb(97.592163%, 78.161621%, 72.319031%)" offset="0.257812"/><stop stop-opacity="1" stop-color="rgb(97.467041%, 77.822876%, 72.02301%)" offset="0.265625"/><stop stop-opacity="1" stop-color="rgb(97.123718%, 77.432251%, 71.582031%)" offset="0.269531"/><stop stop-opacity="1" stop-color="rgb(96.899414%, 77.198792%, 71.298218%)" offset="0.273438"/><stop stop-opacity="1" stop-color="rgb(96.899414%, 77.049255%, 71.148682%)" offset="0.28125"/><stop stop-opacity="1" stop-color="rgb(96.815491%, 76.81427%, 70.915222%)" offset="0.289062"/><stop stop-opacity="1" stop-color="rgb(96.614075%, 76.41449%, 70.515442%)" offset="0.292969"/><stop stop-opacity="1" stop-color="rgb(96.498108%, 76.098633%, 70.199585%)" offset="0.296875"/><stop stop-opacity="1" stop-color="rgb(96.339417%, 75.939941%, 70.199585%)" offset="0.304688"/><stop stop-opacity="1" stop-color="rgb(96.141052%, 75.605774%, 69.93103%)" offset="0.308594"/><stop stop-opacity="1" stop-color="rgb(96.099854%, 75.431824%, 69.662476%)" offset="0.3125"/><stop stop-opacity="1" stop-color="rgb(95.898438%, 75.163269%, 69.329834%)" offset="0.316406"/><stop stop-opacity="1" stop-color="rgb(95.697021%, 74.89624%, 68.998718%)" offset="0.320312"/><stop stop-opacity="1" stop-color="rgb(95.497131%, 74.697876%, 68.881226%)" offset="0.324219"/><stop stop-opacity="1" stop-color="rgb(95.298767%, 74.499512%, 68.763733%)" offset="0.328125"/><stop stop-opacity="1" stop-color="rgb(95.063782%, 74.264526%, 68.44635%)" offset="0.332031"/><stop stop-opacity="1" stop-color="rgb(94.828796%, 74.029541%, 68.128967%)" offset="0.335937"/><stop stop-opacity="1" stop-color="rgb(94.664001%, 73.712158%, 67.849731%)" offset="0.339844"/><stop stop-opacity="1" stop-color="rgb(94.499207%, 73.396301%, 67.572021%)" offset="0.34375"/><stop stop-opacity="1" stop-color="rgb(94.299316%, 73.278809%, 67.466736%)" offset="0.347656"/><stop stop-opacity="1" stop-color="rgb(94.099426%, 73.162842%, 67.362976%)" offset="0.351562"/><stop stop-opacity="1" stop-color="rgb(93.899536%, 72.80426%, 66.995239%)" offset="0.355469"/><stop stop-opacity="1" stop-color="rgb(93.699646%, 72.445679%, 66.629028%)" offset="0.359375"/><stop stop-opacity="1" stop-color="rgb(93.547058%, 72.169495%, 66.311646%)" offset="0.363281"/><stop stop-opacity="1" stop-color="rgb(93.39447%, 71.894836%, 65.995789%)" offset="0.367188"/><stop stop-opacity="1" stop-color="rgb(93.276978%, 71.777344%, 65.878296%)" offset="0.375"/><stop stop-opacity="1" stop-color="rgb(92.843628%, 71.343994%, 65.44342%)" offset="0.378906"/><stop stop-opacity="1" stop-color="rgb(92.527771%, 71.028137%, 65.127563%)" offset="0.382812"/><stop stop-opacity="1" stop-color="rgb(92.436218%, 70.910645%, 64.912415%)" offset="0.386719"/><stop stop-opacity="1" stop-color="rgb(92.346191%, 70.794678%, 64.698792%)" offset="0.390625"/><stop stop-opacity="1" stop-color="rgb(92.253113%, 70.477295%, 64.479065%)" offset="0.394531"/><stop stop-opacity="1" stop-color="rgb(92.160034%, 70.161438%, 64.260864%)" offset="0.398437"/><stop stop-opacity="1" stop-color="rgb(91.97998%, 69.844055%, 63.943481%)" offset="0.402344"/><stop stop-opacity="1" stop-color="rgb(91.799927%, 69.526672%, 63.627625%)" offset="0.40625"/><stop stop-opacity="1" stop-color="rgb(91.598511%, 69.360352%, 63.259888%)" offset="0.410156"/><stop stop-opacity="1" stop-color="rgb(91.398621%, 69.194031%, 62.893677%)" offset="0.414062"/><stop stop-opacity="1" stop-color="rgb(91.178894%, 68.876648%, 62.626648%)" offset="0.417969"/><stop stop-opacity="1" stop-color="rgb(90.960693%, 68.559265%, 62.359619%)" offset="0.421875"/><stop stop-opacity="1" stop-color="rgb(90.779114%, 68.241882%, 62.042236%)" offset="0.425781"/><stop stop-opacity="1" stop-color="rgb(90.59906%, 67.926025%, 61.726379%)" offset="0.429687"/><stop stop-opacity="1" stop-color="rgb(90.345764%, 67.658997%, 61.608887%)" offset="0.433594"/><stop stop-opacity="1" stop-color="rgb(90.092468%, 67.393494%, 61.49292%)" offset="0.4375"/><stop stop-opacity="1" stop-color="rgb(89.775085%, 67.076111%, 61.175537%)" offset="0.441406"/><stop stop-opacity="1" stop-color="rgb(89.459229%, 66.758728%, 60.85968%)" offset="0.445312"/><stop stop-opacity="1" stop-color="rgb(89.341736%, 66.441345%, 60.542297%)" offset="0.449219"/><stop stop-opacity="1" stop-color="rgb(89.225769%, 66.125488%, 60.224915%)" offset="0.453125"/><stop stop-opacity="1" stop-color="rgb(89.10675%, 65.80658%, 59.907532%)" offset="0.457031"/><stop stop-opacity="1" stop-color="rgb(88.989258%, 65.489197%, 59.590149%)" offset="0.460937"/><stop stop-opacity="1" stop-color="rgb(88.623047%, 65.122986%, 59.223938%)" offset="0.464844"/><stop stop-opacity="1" stop-color="rgb(88.258362%, 64.758301%, 58.857727%)" offset="0.46875"/><stop stop-opacity="1" stop-color="rgb(88.027954%, 64.527893%, 58.540344%)" offset="0.472656"/><stop stop-opacity="1" stop-color="rgb(87.799072%, 64.299011%, 58.224487%)" offset="0.476562"/><stop stop-opacity="1" stop-color="rgb(87.644958%, 64.094543%, 57.90863%)" offset="0.480469"/><stop stop-opacity="1" stop-color="rgb(87.490845%, 63.891602%, 57.592773%)" offset="0.484375"/><stop stop-opacity="1" stop-color="rgb(87.173462%, 63.574219%, 57.324219%)" offset="0.488281"/><stop stop-opacity="1" stop-color="rgb(86.857605%, 63.258362%, 57.05719%)" offset="0.492188"/><stop stop-opacity="1" stop-color="rgb(86.578369%, 62.950134%, 56.739807%)" offset="0.496094"/><stop stop-opacity="1" stop-color="rgb(86.299133%, 62.643433%, 56.42395%)" offset="0.5"/><stop stop-opacity="1" stop-color="rgb(86.14502%, 62.367249%, 56.106567%)" offset="0.503906"/><stop stop-opacity="1" stop-color="rgb(85.990906%, 62.091064%, 55.79071%)" offset="0.507812"/><stop stop-opacity="1" stop-color="rgb(85.623169%, 61.523438%, 55.422974%)" offset="0.511719"/><stop stop-opacity="1" stop-color="rgb(85.256958%, 60.957336%, 55.056763%)" offset="0.515625"/><stop stop-opacity="1" stop-color="rgb(85.139465%, 60.639954%, 54.73938%)" offset="0.519531"/><stop stop-opacity="1" stop-color="rgb(85.023499%, 60.322571%, 54.423523%)" offset="0.523438"/><stop stop-opacity="1" stop-color="rgb(84.706116%, 60.160828%, 54.10614%)" offset="0.527344"/><stop stop-opacity="1" stop-color="rgb(84.390259%, 59.999084%, 53.790283%)" offset="0.53125"/><stop stop-opacity="1" stop-color="rgb(84.144592%, 59.727478%, 53.4729%)" offset="0.535156"/><stop stop-opacity="1" stop-color="rgb(83.898926%, 59.455872%, 53.155518%)" offset="0.539062"/><stop stop-opacity="1" stop-color="rgb(83.709717%, 59.138489%, 52.838135%)" offset="0.542969"/><stop stop-opacity="1" stop-color="rgb(83.522034%, 58.822632%, 52.522278%)" offset="0.546875"/><stop stop-opacity="1" stop-color="rgb(83.204651%, 58.505249%, 52.255249%)" offset="0.550781"/><stop stop-opacity="1" stop-color="rgb(82.888794%, 58.189392%, 51.98822%)" offset="0.554688"/><stop stop-opacity="1" stop-color="rgb(82.643127%, 57.872009%, 51.664734%)" offset="0.558594"/><stop stop-opacity="1" stop-color="rgb(82.398987%, 57.554626%, 51.341248%)" offset="0.5625"/><stop stop-opacity="1" stop-color="rgb(82.209778%, 57.237244%, 50.98114%)" offset="0.566406"/><stop stop-opacity="1" stop-color="rgb(82.022095%, 56.921387%, 50.621033%)" offset="0.570313"/><stop stop-opacity="1" stop-color="rgb(81.704712%, 56.404114%, 50.30365%)" offset="0.574219"/><stop stop-opacity="1" stop-color="rgb(81.388855%, 55.888367%, 49.987793%)" offset="0.578125"/><stop stop-opacity="1" stop-color="rgb(81.071472%, 55.570984%, 49.649048%)" offset="0.582031"/><stop stop-opacity="1" stop-color="rgb(80.754089%, 55.255127%, 49.310303%)" offset="0.585938"/><stop stop-opacity="1" stop-color="rgb(80.436707%, 54.937744%, 48.815918%)" offset="0.589844"/><stop stop-opacity="1" stop-color="rgb(80.12085%, 54.620361%, 48.321533%)" offset="0.59375"/><stop stop-opacity="1" stop-color="rgb(79.859924%, 54.302979%, 48.017883%)" offset="0.597656"/><stop stop-opacity="1" stop-color="rgb(79.598999%, 53.987122%, 47.715759%)" offset="0.601563"/><stop stop-opacity="1" stop-color="rgb(79.426575%, 53.669739%, 47.434998%)" offset="0.605469"/><stop stop-opacity="1" stop-color="rgb(79.25415%, 53.353882%, 47.154236%)" offset="0.609375"/><stop stop-opacity="1" stop-color="rgb(78.90625%, 53.007507%, 46.806335%)" offset="0.613281"/><stop stop-opacity="1" stop-color="rgb(78.559875%, 52.661133%, 46.459961%)" offset="0.617188"/><stop stop-opacity="1" stop-color="rgb(78.222656%, 52.374268%, 46.122742%)" offset="0.621094"/><stop stop-opacity="1" stop-color="rgb(77.886963%, 52.087402%, 45.787048%)" offset="0.625"/><stop stop-opacity="1" stop-color="rgb(77.612305%, 51.596069%, 45.469666%)" offset="0.628906"/><stop stop-opacity="1" stop-color="rgb(77.339172%, 51.106262%, 45.153809%)" offset="0.632812"/><stop stop-opacity="1" stop-color="rgb(77.029419%, 50.762939%, 44.746399%)" offset="0.636719"/><stop stop-opacity="1" stop-color="rgb(76.719666%, 50.419617%, 44.338989%)" offset="0.640625"/><stop stop-opacity="1" stop-color="rgb(76.408386%, 50.102234%, 43.911743%)" offset="0.644531"/><stop stop-opacity="1" stop-color="rgb(76.098633%, 49.786377%, 43.486023%)" offset="0.648437"/><stop stop-opacity="1" stop-color="rgb(75.85144%, 49.468994%, 43.16864%)" offset="0.652344"/><stop stop-opacity="1" stop-color="rgb(75.605774%, 49.151611%, 42.852783%)" offset="0.65625"/><stop stop-opacity="1" stop-color="rgb(75.198364%, 48.620605%, 42.572021%)" offset="0.660156"/><stop stop-opacity="1" stop-color="rgb(74.79248%, 48.091125%, 42.29126%)" offset="0.664062"/><stop stop-opacity="1" stop-color="rgb(74.446106%, 47.787476%, 41.937256%)" offset="0.667969"/><stop stop-opacity="1" stop-color="rgb(74.099731%, 47.485352%, 41.584778%)" offset="0.671875"/><stop stop-opacity="1" stop-color="rgb(73.974609%, 47.291565%, 41.390991%)" offset="0.679687"/><stop stop-opacity="1" stop-color="rgb(73.774719%, 47.099304%, 41.19873%)" offset="0.6875"/><stop stop-opacity="1" stop-color="rgb(73.699951%, 47.099304%, 41.19873%)" offset="0.75"/><stop stop-opacity="1" stop-color="rgb(73.699951%, 47.099304%, 41.19873%)" offset="1"/></linearGradient><clipPath id="id7"><path d="M 47 6.058594 L 57 6.058594 L 57 19 L 47 19 Z M 47 6.058594 " clip-rule="nonzero"/></clipPath><clipPath id="id8"><path d="M 47 6.058594 L 57 6.058594 L 57 15 L 47 15 Z M 47 6.058594 " clip-rule="nonzero"/></clipPath></defs><path fill="#fab596" d="M 17.886719 68.1875 C 15.832031 71.804688 10.625 72.71875 6.253906 70.234375 C 1.878906 67.746094 0 62.796875 2.050781 59.179688 C 4.105469 55.558594 9.3125 54.644531 13.683594 57.132812 C 18.054688 59.621094 19.9375 64.570312 17.886719 68.1875 " fill-opacity="1" fill-rule="nonzero"/><path fill="#fab596" d="M 80.539062 64.089844 C 82.316406 67.21875 86.820312 68.011719 90.601562 65.859375 C 94.382812 63.707031 96.007812 59.425781 94.234375 56.296875 C 92.460938 53.167969 87.957031 52.378906 84.175781 54.53125 C 80.394531 56.679688 78.765625 60.960938 80.539062 64.089844 " fill-opacity="1" fill-rule="nonzero"/><g clip-path="url(#id1)"><path fill="#fab596" d="M 48.910156 15.269531 C 28.285156 15.269531 11.566406 32.015625 11.566406 52.667969 C 11.566406 73.324219 28.285156 90.066406 48.910156 90.066406 C 69.53125 90.066406 86.25 73.324219 86.25 52.667969 C 86.25 32.015625 69.53125 15.269531 48.910156 15.269531 " fill-opacity="1" fill-rule="nonzero"/></g><g clip-path="url(#id2)"><g clip-path="url(#id3)"><g clip-path="url(#id4)"><g clip-path="url(#id5)"><path fill="url(#id6)" d="M 45.257812 75.964844 L 62.976562 73.851562 L 62.183594 67.195312 L 44.46875 69.308594 Z M 45.257812 75.964844 " fill-rule="nonzero"/></g></g></g></g><g clip-path="url(#id7)"><path fill="#472915" d="M 48.085938 17.058594 C 51.378906 19.96875 59.605469 16.625 55.71875 6.082031 C 54.078125 10.316406 51.8125 9.90625 50.230469 10.5625 C 46.546875 12.089844 46.757812 15.886719 48.085938 17.058594 " fill-opacity="1" fill-rule="nonzero"/></g><g clip-path="url(#id8)"><path fill="#925931" d="M 49.929688 12.15625 C 50.816406 11.847656 51.867188 11.777344 52.851562 11.601562 C 54.601562 10.648438 56.449219 9.121094 56.097656 7.210938 C 56.023438 6.960938 55.9375 6.703125 55.847656 6.445312 C 55.835938 6.417969 55.828125 6.390625 55.816406 6.359375 C 55.785156 6.265625 55.753906 6.175781 55.71875 6.082031 C 54.078125 10.316406 51.8125 9.90625 50.230469 10.5625 C 48.320312 11.355469 47.460938 12.761719 47.257812 14.089844 C 47.804688 13.234375 48.785156 12.5625 49.929688 12.15625 " fill-opacity="1" fill-rule="nonzero"/></g><path fill="#6f4323" d="M 55.359375 12.011719 C 54.40625 13.40625 52.753906 14.605469 50.992188 14.566406 C 50.207031 14.546875 49.457031 14.375 48.6875 14.246094 C 48.296875 14.179688 47.890625 14.105469 47.496094 14.15625 C 47.398438 14.171875 47.3125 14.210938 47.234375 14.265625 C 47.105469 15.433594 47.476562 16.523438 48.085938 17.058594 C 51.035156 19.667969 57.9375 17.253906 56.558594 9.148438 C 56.355469 10.144531 55.976562 11.109375 55.359375 12.011719 " fill-opacity="1" fill-rule="nonzero"/><path fill="#4d2d17" d="M 55.785156 12.957031 C 54.832031 14.960938 52.777344 16.453125 50.484375 16.046875 C 49.46875 15.867188 48.496094 15.433594 47.578125 14.972656 C 47.34375 14.855469 47.265625 14.984375 47.234375 15.203125 C 47.328125 15.992188 47.644531 16.671875 48.085938 17.058594 C 51.03125 19.660156 57.917969 17.261719 56.566406 9.191406 C 56.550781 10.5 56.335938 11.800781 55.785156 12.957031 " fill-opacity="1" fill-rule="nonzero"/><path fill="#e6a689" d="M 43.019531 33.183594 C 39.117188 33.183594 35.609375 32.304688 33.132812 31.222656 C 28.714844 29.285156 27.148438 25.078125 26.605469 22.671875 C 30.566406 19.714844 35.140625 17.53125 40.09375 16.328125 C 43.722656 18.941406 52.269531 24.53125 59.042969 24.53125 C 60.050781 24.53125 61.023438 24.40625 61.929688 24.128906 C 56.265625 31.023438 49.152344 33.183594 43.019531 33.183594 " fill-opacity="1" fill-rule="nonzero"/><path fill="#e9e9e9" d="M 42.816406 54.179688 C 42.816406 49.550781 39.070312 45.796875 34.449219 45.796875 C 29.828125 45.796875 26.078125 49.550781 26.078125 54.179688 C 26.078125 58.808594 29.828125 62.558594 34.449219 62.558594 C 39.070312 62.558594 42.816406 58.808594 42.816406 54.179688 " fill-opacity="1" fill-rule="nonzero"/><path fill="#93261e" d="M 42.597656 55.246094 C 42.597656 51.375 39.464844 48.242188 35.605469 48.242188 C 31.742188 48.242188 28.613281 51.375 28.613281 55.246094 C 28.613281 59.109375 31.742188 62.246094 35.605469 62.246094 C 39.464844 62.246094 42.597656 59.109375 42.597656 55.246094 " fill-opacity="1" fill-rule="nonzero"/><path fill="#231f20" d="M 38.742188 55.246094 C 38.742188 53.507812 37.335938 52.101562 35.605469 52.101562 C 33.871094 52.101562 32.464844 53.507812 32.464844 55.246094 C 32.464844 56.980469 33.871094 58.386719 35.605469 58.386719 C 37.335938 58.386719 38.742188 56.980469 38.742188 55.246094 " fill-opacity="1" fill-rule="nonzero"/><path fill="#ffffff" d="M 31.558594 56.292969 C 31.253906 56.292969 30.964844 56.21875 30.710938 56.066406 C 29.535156 55.351562 29.550781 53.160156 30.75 51.171875 C 31.695312 49.609375 33.085938 48.636719 34.210938 48.636719 C 34.519531 48.636719 34.804688 48.710938 35.058594 48.863281 C 35.910156 49.378906 36.136719 50.675781 35.738281 52.105469 C 35.695312 52.101562 35.648438 52.101562 35.605469 52.101562 C 33.871094 52.101562 32.464844 53.507812 32.464844 55.246094 C 32.464844 55.527344 32.503906 55.800781 32.574219 56.0625 C 32.222656 56.210938 31.878906 56.292969 31.558594 56.292969 " fill-opacity="1" fill-rule="nonzero"/><path fill="#ffffff" d="M 32.574219 56.0625 C 32.503906 55.800781 32.464844 55.527344 32.464844 55.246094 C 32.464844 53.507812 33.871094 52.101562 35.605469 52.101562 C 35.648438 52.101562 35.695312 52.101562 35.738281 52.105469 C 35.589844 52.644531 35.347656 53.207031 35.019531 53.753906 C 34.34375 54.871094 33.441406 55.6875 32.574219 56.0625 " fill-opacity="1" fill-rule="nonzero"/><path fill="#ffffff" d="M 38.21875 53.503906 C 37.832031 52.921875 37.253906 52.476562 36.574219 52.253906 C 36.640625 52.074219 36.726562 51.890625 36.835938 51.710938 C 37.253906 51.015625 37.875 50.582031 38.378906 50.582031 C 38.511719 50.582031 38.640625 50.613281 38.753906 50.679688 C 39.277344 51 39.269531 51.972656 38.738281 52.859375 C 38.585938 53.113281 38.40625 53.328125 38.21875 53.503906 " fill-opacity="1" fill-rule="nonzero"/><path fill="#ffffff" d="M 37.195312 53.988281 C 37.058594 53.988281 36.929688 53.957031 36.820312 53.890625 C 36.402344 53.636719 36.320312 52.964844 36.574219 52.253906 C 37.253906 52.476562 37.832031 52.921875 38.21875 53.503906 C 37.882812 53.8125 37.515625 53.988281 37.195312 53.988281 " fill-opacity="1" fill-rule="nonzero"/><path fill="#e9e9e9" d="M 75.847656 54.367188 C 75.847656 49.738281 72.101562 45.988281 67.480469 45.988281 C 62.859375 45.988281 59.113281 49.738281 59.113281 54.367188 C 59.113281 58.996094 62.859375 62.746094 67.480469 62.746094 C 72.101562 62.746094 75.847656 58.996094 75.847656 54.367188 " fill-opacity="1" fill-rule="nonzero"/><path fill="#93261e" d="M 75.628906 55.433594 C 75.628906 51.566406 72.5 48.429688 68.636719 48.429688 C 64.773438 48.429688 61.644531 51.566406 61.644531 55.433594 C 61.644531 59.300781 64.773438 62.433594 68.636719 62.433594 C 72.5 62.433594 75.628906 59.300781 75.628906 55.433594 " fill-opacity="1" fill-rule="nonzero"/><path fill="#231f20" d="M 71.773438 55.433594 C 71.773438 53.699219 70.371094 52.292969 68.636719 52.292969 C 66.902344 52.292969 65.5 53.699219 65.5 55.433594 C 65.5 57.167969 66.902344 58.574219 68.636719 58.574219 C 70.371094 58.574219 71.773438 57.167969 71.773438 55.433594 " fill-opacity="1" fill-rule="nonzero"/><path fill="#ffffff" d="M 68.050781 53.945312 C 69.25 51.957031 69.265625 49.765625 68.089844 49.054688 C 66.910156 48.339844 64.984375 49.375 63.78125 51.363281 C 62.585938 53.351562 62.566406 55.542969 63.746094 56.253906 C 64.921875 56.96875 66.847656 55.933594 68.050781 53.945312 " fill-opacity="1" fill-rule="nonzero"/><path fill="#ffffff" d="M 71.769531 53.050781 C 72.304688 52.164062 72.3125 51.1875 71.785156 50.871094 C 71.261719 50.550781 70.402344 51.011719 69.867188 51.898438 C 69.335938 52.785156 69.324219 53.761719 69.851562 54.078125 C 70.375 54.394531 71.234375 53.933594 71.769531 53.050781 " fill-opacity="1" fill-rule="nonzero"/><path fill="#6f4323" d="M 28.261719 16.042969 C 25.792969 27.25 43.800781 41.847656 62.933594 19.664062 C 51.203125 21.246094 49.277344 15.550781 45.785156 12.757812 C 37.648438 6.261719 29.257812 11.527344 28.261719 16.042969 " fill-opacity="1" fill-rule="nonzero"/><path fill="#925931" d="M 41.769531 14.085938 C 43.601562 15.71875 45.078125 18.035156 46.730469 20.0625 C 51.109375 22.867188 56.921875 25.171875 60.832031 21.953125 C 61.308594 21.464844 61.785156 20.953125 62.265625 20.417969 C 62.316406 20.355469 62.367188 20.296875 62.421875 20.242188 C 62.59375 20.050781 62.761719 19.863281 62.933594 19.664062 C 51.203125 21.246094 49.277344 15.550781 45.785156 12.757812 C 41.5625 9.386719 37.277344 9.1875 33.984375 10.402344 C 36.628906 10.578125 39.394531 11.96875 41.769531 14.085938 " fill-opacity="1" fill-rule="nonzero"/><path fill="#5b361c" d="M 48.964844 26.316406 C 44.574219 25.890625 39.757812 23.625 37.621094 19.550781 C 36.667969 17.734375 36.113281 15.792969 35.433594 13.867188 C 35.09375 12.898438 34.753906 11.871094 34.132812 11.039062 C 33.980469 10.828125 33.78125 10.683594 33.558594 10.570312 C 30.734375 11.75 28.71875 13.972656 28.261719 16.042969 C 26.046875 26.078125 40.265625 38.832031 57 25.449219 C 54.472656 26.246094 51.792969 26.589844 48.964844 26.316406 " fill-opacity="1" fill-rule="nonzero"/><path fill="#4d2d17" d="M 47.332031 28.484375 C 41.570312 28.835938 35.566406 26.011719 33.601562 20.257812 C 32.730469 17.710938 32.492188 14.933594 32.382812 12.253906 C 32.355469 11.566406 31.957031 11.546875 31.425781 11.757812 C 29.742188 12.964844 28.59375 14.542969 28.261719 16.042969 C 26.050781 26.0625 40.214844 38.789062 56.914062 25.519531 C 53.90625 27.136719 50.671875 28.28125 47.332031 28.484375 " fill-opacity="1" fill-rule="nonzero"/><path fill="#ef2d3b" d="M 45.015625 71.324219 C 45.015625 71.324219 49.667969 73.023438 55.097656 72.222656 C 60.53125 71.421875 62.429688 69.242188 62.429688 69.242188 C 62.429688 69.242188 59.9375 81.199219 54.855469 81.460938 C 49.773438 81.71875 45.015625 71.324219 45.015625 71.324219 " fill-opacity="1" fill-rule="nonzero"/><path fill="#e0788a" d="M 54.269531 75.355469 C 51.421875 74.320312 49.515625 74.871094 48.003906 76.453125 C 49.832031 79.035156 52.300781 81.589844 54.855469 81.460938 C 57.390625 81.332031 59.28125 78.292969 60.539062 75.277344 C 58.835938 73.667969 56.625 74.882812 54.269531 75.355469 " fill-opacity="1" fill-rule="nonzero"/><path fill="#6f4323" d="M 21.664062 47.011719 C 21.664062 47.011719 26.847656 37.953125 37.085938 39.527344 C 47.328125 41.101562 42.519531 36.609375 38.707031 36.53125 C 34.894531 36.457031 26.375 36.609375 21.664062 47.011719 " fill-opacity="1" fill-rule="nonzero"/><path fill="#6f4323" d="M 80.679688 47.011719 C 80.679688 47.011719 75.5 37.953125 65.257812 39.527344 C 55.015625 41.101562 59.824219 36.609375 63.636719 36.53125 C 67.449219 36.457031 75.96875 36.609375 80.679688 47.011719 " fill-opacity="1" fill-rule="nonzero"/><path fill="#785545" d="M 49.773438 63.683594 C 50.667969 65.605469 52.660156 67.800781 55.351562 66.652344 C 58.042969 65.503906 57.941406 63.039062 57.941406 63.039062 C 57.941406 63.039062 53.859375 65.605469 49.773438 63.683594 " fill-opacity="1" fill-rule="nonzero"/><path fill="#d99d82" d="M 55.777344 60.195312 C 55.777344 60.195312 59.019531 60.304688 57.941406 63.039062 C 57.113281 65.136719 51.640625 66.253906 49.773438 63.683594 C 49.773438 63.683594 56.269531 65.214844 55.777344 60.195312 " fill-opacity="1" fill-rule="nonzero"/></svg>