<svg xmlns="http://www.w3.org/2000/svg" xmlns:xlink="http://www.w3.org/1999/xlink" width="500" zoomAndPan="magnify" viewBox="0 0 375 374.999991" height="500" preserveAspectRatio="xMidYMid meet" version="1.0"><path fill="#ffc107" d="M 187.5 62.5 L 343.75 125 L 187.5 187.5 L 31.25 125 Z M 187.5 62.5 " fill-opacity="1" fill-rule="nonzero"/><path fill="#ffd54f" d="M 31.25 125 L 187.5 187.5 L 187.5 375 L 31.25 312.5 Z M 31.25 125 " fill-opacity="1" fill-rule="nonzero"/><path fill="#ffca28" d="M 343.75 125 L 187.5 187.5 L 187.5 375 L 343.75 312.5 Z M 343.75 125 " fill-opacity="1" fill-rule="nonzero"/><path fill="#00bcd4" d="M 67.078125 285.828125 L 39.234375 313.671875 C 36.671875 312.984375 34.03125 312.5 31.25 312.5 C 14.015625 312.5 0 326.515625 0 343.75 C 0 360.984375 14.015625 375 31.25 375 C 48.484375 375 62.5 360.984375 62.5 343.75 C 62.5 340.96875 62.015625 338.328125 61.328125 335.765625 L 89.171875 307.921875 C 95.28125 301.8125 95.28125 291.9375 89.171875 285.828125 C 83.0625 279.71875 73.1875 279.71875 67.078125 285.828125 Z M 67.078125 285.828125 " fill-opacity="1" fill-rule="nonzero"/><path fill="#00bcd4" d="M 187.5 0 C 170.265625 0 156.25 14.015625 156.25 31.25 C 156.25 42.765625 162.578125 52.734375 171.875 58.15625 L 171.875 109.375 C 171.875 118 178.875 125 187.5 125 C 196.125 125 203.125 118 203.125 109.375 L 203.125 58.15625 C 212.421875 52.734375 218.75 42.765625 218.75 31.25 C 218.75 14.015625 204.734375 0 187.5 0 Z M 187.5 0 " fill-opacity="1" fill-rule="nonzero"/><path fill="#00bcd4" d="M 343.75 312.5 C 340.96875 312.5 338.328125 312.984375 335.765625 313.671875 L 307.921875 285.828125 C 301.8125 279.71875 291.9375 279.71875 285.828125 285.828125 C 279.71875 291.9375 279.71875 301.8125 285.828125 307.921875 L 313.671875 335.765625 C 312.984375 338.328125 312.5 340.96875 312.5 343.75 C 312.5 360.984375 326.515625 375 343.75 375 C 360.984375 375 375 360.984375 375 343.75 C 375 326.515625 360.984375 312.5 343.75 312.5 Z M 343.75 312.5 " fill-opacity="1" fill-rule="nonzero"/></svg>